<svg xmlns="http://www.w3.org/2000/svg" viewBox="0 0 496 496"><path fill="#fff" d="M480 248c0 88.224-71.776 160-160 160-46.472 0-88.256-20.04-117.512-51.792C229.36 373.872 264.08 384 304 384c50.088 0 83.408-24.552 84.8-25.6l-9.584-12.816C378.912 345.816 348.536 368 304 368c-33.36 0-62.408-7.304-85.568-20.344C227.816 350.448 237.72 352 248 352c97.048 0 176-78.952 176-176S345.048 0 248 0v16c88.224 0 160 71.776 160 160 0 46.48-20.04 88.264-51.792 117.52C373.872 266.648 384 231.92 384 192c0-50.088-24.552-83.408-25.6-84.8l-12.808 9.584c.224.304 22.408 30.68 22.408 75.216 0 33.36-7.304 62.408-20.344 85.576C350.448 268.192 352 258.28 352 248c0-97.048-78.952-176-176-176S0 150.952 0 248h16c0-88.224 71.776-160 160-160 46.472 0 88.256 20.04 117.512 51.792C266.64 122.128 231.92 112 192 112c-50.088 0-83.408 24.552-84.8 25.6l9.584 12.808C117.088 150.184 147.464 128 192 128c33.36 0 62.408 7.304 85.568 20.344C268.184 145.552 258.28 144 248 144c-97.048 0-176 78.952-176 176s78.952 176 176 176v-16c-88.224 0-160-71.776-160-160 0-46.472 20.04-88.256 51.792-117.512C122.128 229.36 112 264.08 112 304c0 50.096 24.552 83.408 25.6 84.8l12.808-9.584C150.184 378.912 128 348.536 128 304c0-33.36 7.304-62.408 20.344-85.568C145.552 227.816 144 237.72 144 248c0 97.048 78.952 176 176 176s176-78.952 176-176h-16zm-319.544 9.008c-.208-2.976-.456-5.944-.456-9.008 0-45.48 34.688-83.016 78.992-87.544 2.976-.208 5.944-.456 9.008-.456 45.48 0 83.016 34.688 87.544 78.992.208 2.976.456 5.944.456 9.008 0 45.48-34.688 83.016-78.992 87.544-2.976.208-5.944.456-9.008.456-45.48 0-83.016-34.68-87.544-78.992z"/></svg>